<?xml version="1.0" encoding="UTF-8"?>
<!-- Generator: Adobe Illustrator 19.0.0, SVG Export Plug-In . SVG Version: 6.00 Build 0)  -->
<svg width="335.73" height="395.38" version="1.1" viewBox="0 0 335.73 395.38" xml:space="preserve" xmlns="http://www.w3.org/2000/svg">
<g transform="matrix(1 0 0 .77223 -88.135 0)">
	
		<path d="m256 0c-92.562 0-167.86 75.303-167.86 167.86v292.62c0 12.678 7.094 23.973 18.513 29.479 11.418 5.505 24.674 4.023 34.596-3.871 0.012-0.01 0.026-0.021 0.04-0.033 5.272-4.174 12.62-4.168 17.883 0.022l23.567 18.754c5.999 4.775 13.19 7.163 20.38 7.163 7.191 0 14.381-2.388 20.382-7.163l23.558-18.752c5.274-4.198 12.638-4.196 17.913 0l23.555 18.75c12 9.553 28.764 9.554 40.765 0l23.556-18.749c5.273-4.198 12.64-4.198 17.912 0 9.921 7.896 23.177 9.38 34.596 3.874 11.42-5.506 18.514-16.802 18.514-29.481v-292.61c-3e-3 -92.561-75.306-167.86-167.87-167.86zm149.52 460.48c0 5.656-3.042 10.498-8.135 12.954-5.095 2.456-10.778 1.82-15.202-1.703-12.001-9.551-28.763-9.551-40.765 0l-23.556 18.749c-5.272 4.199-12.638 4.198-17.912 0l-23.555-18.75c-12.001-9.553-28.764-9.553-40.764 0l-23.558 18.752c-5.273 4.196-12.638 4.196-17.911 0l-23.567-18.755c-5.999-4.774-13.19-7.161-20.38-7.161-7.191 0-14.38 2.388-20.381 7.161-0.011 0.01-0.024 0.021-0.038 0.031-4.42 3.504-10.091 4.134-15.176 1.682-5.094-2.456-8.135-7.298-8.135-12.954v-292.62c1e-3 -82.444 67.074-149.52 149.52-149.52s149.52 67.072 149.52 149.52z"/>
	
</g>

<g transform="translate(-88.135,-12)">
	
		<path d="m314.72 110.38c-22.224 0-40.305 18.081-40.305 40.306s18.081 40.306 40.305 40.306c22.225 0 40.307-18.081 40.307-40.306s-18.082-40.306-40.307-40.306zm0 62.265c-12.108 0-21.959-9.851-21.959-21.96s9.851-21.96 21.959-21.96c12.109 0 21.96 9.851 21.96 21.96s-9.851 21.96-21.96 21.96z"/>
	
</g>
















<path d="m103.12 159.45c-6.3603-2.0781-10.828-6.0181-13.652-12.039-1.3547-2.8884-1.5998-4.2636-1.595-8.9512 5e-3 -4.8695 0.21404-5.9354 1.7308-8.8248 4.1404-7.8872 10.113-11.848 18.505-12.273 4.0474-0.20478 5.6575-5.7e-4 8.5261 1.0814 4.6454 1.7522 9.737 6.4191 11.975 10.976 1.516 3.0872 1.7195 4.1934 1.7195 9.3478 0 5.4814-0.13049 6.0868-2.0918 9.7036-3.8876 7.1691-10.276 11.253-18.182 11.623-2.5788 0.12073-5.3942-0.14075-6.9346-0.64405z" stroke="#ff0" stroke-linejoin="round" stroke-width=".39772"/></svg>
