<?xml version="1.0" encoding="UTF-8"?>
<!-- Generator: Adobe Illustrator 19.0.0, SVG Export Plug-In . SVG Version: 6.00 Build 0)  -->
<svg width="60" height="58.365" version="1.1" viewBox="0 0 60 58.365" xml:space="preserve" xmlns="http://www.w3.org/2000/svg">
<g transform="translate(0 -.818)">
	<path d="m14 36.182h14v-10h-14zm2-2v-3h10v3zm10-6v1h-10v-1z"/>
	<path d="m14 40.182v12h14v-12zm6 2v3h-4v-3zm-4 5h4v3h-4zm6 3v-3h4v3zm4-5h-4v-3h4z"/>
	<path d="m32 36.182h14v-10h-14zm2-2v-1h10v1zm10-6v3h-10v-3z"/>
	<path d="m59 48.182c-0.553 0-1 0.448-1 1v1h-1v-1c0-0.552-0.447-1-1-1s-1 0.448-1 1v1h-1v-20.204c0.521 0.234 1.073 0.363 1.626 0.363 1.073 0 2.139-0.436 2.927-1.284 0.76-0.818 1.145-1.925 1.057-3.038-0.089-1.112-0.644-2.145-1.522-2.833l-25.366-19.841-2.722-2.527-2.657 2.472-25.43 19.896c-0.879 0.688-1.434 1.721-1.522 2.833-0.088 1.113 0.297 2.22 1.057 3.038 1.194 1.286 3.021 1.61 4.553 0.922v20.204h-1.001v-1c0-0.552-0.447-1-1-1s-1 0.448-1 1v1h-1v-1c0-0.552-0.447-1-1-1s-1 0.448-1 1v9c0 0.552 0.447 1 1 1s1-0.448 1-1v-1h1v1c0 0.552 0.447 1 1 1s1-0.448 1-1v-1h1v2h48v-2h1v1c0 0.552 0.447 1 1 1s1-0.448 1-1v-1h1v1c0 0.552 0.447 1 1 1s1-0.448 1-1v-9c0-0.553-0.447-1.001-1-1.001zm-56.088-20.487c-0.385-0.415-0.572-0.954-0.527-1.518s0.314-1.067 0.761-1.416l25.494-19.95 1.361-1.265 1.424 1.319 25.43 19.896c0.446 0.349 0.716 0.852 0.761 1.416s-0.143 1.104-0.527 1.518c-0.708 0.762-1.861 0.858-2.686 0.223l-0.403-0.31-24-18.5-23.61 18.2-1e-3 1e-3 -0.791 0.609c-0.826 0.635-1.978 0.539-2.686-0.223zm-0.912 27.487v-3h1v3zm3 0v-3h1v3zm29 2v-15h10v15zm18 0h-6v-17h-14v17h-24v-28.591l22-16.959 22 16.959zm2-2v-3h1v3zm3 0v-3h1v3z"/>
</g>















</svg>
