<?xml version="1.0" encoding="UTF-8"?>
<svg width="20" height="20" version="1.1" xmlns="http://www.w3.org/2000/svg">
 <path d="m10 1.802c2.67 0 2.987 0.01 4.042 0.059 2.71 0.123 3.975 1.409 4.099 4.099 0.048 1.054 0.057 1.37 0.057 4.04 0 2.672-0.01 2.988-0.057 4.042-0.124 2.687-1.387 3.975-4.1 4.099-1.054 0.048-1.37 0.058-4.041 0.058-2.67 0-2.987-0.01-4.04-0.058-2.718-0.124-3.977-1.416-4.1-4.1-0.048-1.054-0.058-1.37-0.058-4.041 0-2.67 0.01-2.986 0.058-4.04 0.124-2.69 1.387-3.977 4.1-4.1 1.054-0.048 1.37-0.058 4.04-0.058zm0-1.802c-2.716 0-3.056 0.012-4.123 0.06-3.631 0.167-5.65 2.182-5.816 5.817-0.051 1.067-0.061 1.407-0.061 4.123s0.012 3.057 0.06 4.123c0.167 3.632 2.182 5.65 5.817 5.817 1.067 0.048 1.407 0.06 4.123 0.06s3.057-0.012 4.123-0.06c3.629-0.167 5.652-2.182 5.816-5.817 0.05-1.066 0.061-1.407 0.061-4.123s-0.012-3.056-0.06-4.122c-0.163-3.629-2.18-5.65-5.816-5.818-1.067-0.05-1.408-0.06-4.124-0.06zm0 4.865a5.135 5.135 0 1 0 0 10.27 5.135 5.135 0 0 0 0-10.27zm0 8.468a3.333 3.333 0 1 1 0-6.666 3.333 3.333 0 0 1 0 6.666zm5.338-9.87a1.2 1.2 0 1 0 0 2.4 1.2 1.2 0 0 0 0-2.4z" fill="#fff"/>
</svg>
