<?xml version="1.0" encoding="UTF-8"?>
<svg width="19.999" height="20" version="1.1" xmlns="http://www.w3.org/2000/svg">
 <path d="m18.896 0h-17.792c-0.61 0-1.104 0.494-1.104 1.104v17.793c0 0.609 0.494 1.103 1.104 1.103h9.58v-7.745h-2.608v-3.018h2.606v-2.227c0-2.583 1.578-3.99 3.883-3.99 1.104 0 2.052 0.082 2.329 0.119v2.7h-1.598c-1.254 0-1.496 0.597-1.496 1.47v1.928h2.989l-0.39 3.018h-2.6v7.745h5.098c0.608 0 1.102-0.494 1.102-1.104v-17.792c1e-3 -0.61-0.493-1.104-1.103-1.104z" fill="#fff"/>
</svg>
