<?xml version="1.0" encoding="UTF-8"?>
<!-- Generator: Adobe Illustrator 22.1.0, SVG Export Plug-In . SVG Version: 6.00 Build 0)  -->
<svg width="5171.7" height="755.99" version="1.1" viewBox="0 0 5171.7 755.99" xml:space="preserve" xmlns="http://www.w3.org/2000/svg">
<style type="text/css">
	.st0{fill:#FFFFFF;}
	.st1{fill:#EC1C24;}
	.st2{fill:#231F20;}
</style>
<g id="white_fill" transform="translate(-18.193 -18.008)">
	<path class="st0" d="m895.7 460.3c-0.1-3.1-1.9-5.5-3.5-7.4-3.5-4.2-7.9-8.6-16.3-11.5-8-2.8-30.7-9.6-45.6-13.3-6.2-1.5-11.3-3.3-14.4-4.6-1-0.4-2.2-0.3-3.2 0.2-0.3 0.2-0.7 0.4-0.9 0.7 0.5-2.4 1.4-5.1 2.7-8.1 2.7-6.1 10.5-14.6 16.5-19.9 9-7.9 17.7-13.4 24.8-17.9 6-3.8 10.7-6.8 13.7-10 4-4.2 4.8-8.6 2.3-13.2-2.2-4.1-6.7-6.1-13.4-6.1-18.6 0-51.9 15.8-59.8 20-11 5.9-25.2 11.7-37.8 15.7-0.2-0.9-0.7-1.8-1.4-2.4-3.2-2.4-12.8-2.4-12.9-2.4h-1.7c-4 0.2-9.5 1.4-14.3 2.5 0.1-1-0.5-11.6-0.9-13.4l-0.1-0.6-0.3-1.2c-0.3-1.1-1.1-2-2.1-2.4s-2.2-0.4-3.2 0.1l-88.9 48.4-242.3 132c-1.1 0.6-1.8 1.7-1.9 2.9s0.4 2.4 1.4 3.2c3 2.3 9 6.6 17.4 11.6 6.7 4 1.2 2.9 0.2 3.4-0.6 0.3-1.1 0.7-1.4 1.2-3.1 4.3-9.6 13-18.4 22.7-6.2 6.9-15.5 14-23 19.2-3.5 2.5-10.2 4.9-10.3 4.9l-0.1-0.1c-1.6-1.2-3.9-0.9-5.1 0.7s-0.9 3.9 0.7 5.1l0.1 0.1c0.3 0.2 0.6 0.4 0.9 0.7l0.1 0.1 0.5 0.4c0.3 0.3 0.7 0.4 1.1 0.6 0.2 0.3 0.5 0.6 0.9 0.9 20 14.5 42 25.7 65.4 33.4 24.2 7.9 49.4 12 75.1 12 26.7 0 52.9-4.3 77.9-12.9 24.2-8.3 46.8-20.3 67.2-35.8 20.2-15.3 37.8-33.7 52.3-54.5 14.7-21.1 25.8-44.3 33.1-68.9 0.3-1.1 0.1-2.3-0.5-3.2-0.3-0.4-0.7-0.8-1.1-1h0.7c10.2 0 17.9-2.8 24.7-5.3 5.2-1.9 9.8-2.8 14.1-2.8 4.4 0 8.5 1 12.8 2.9 8.6 4 18.6 11.9 26.7 18.3 2.3 1.9 4.5 3.6 6.5 5.1 8.7 6.6 18.9 10.7 26.7 10.7 1.8 0 3.6-0.2 5.1-0.7 5-1.4 6.5-4.5 7-6.3 0.8-2.6 0.6-7-4.6-12.7-2.5-2.8-7.4-7.4-12-11.9-3.8-3.6-7.4-7-9.1-8.9-1.5-1.6-3.8-4.6-6.4-8.5-0.2-0.2-0.4-0.5-0.6-0.7 1-0.6 2.2-1.1 3.5-1.3 4.3-0.9 9.6-2 15.4-2 4.9 0 9.4 0.8 13.9 2.4 7.3 2.6 16.2 4.1 23.9 4.1 10.2 0 15.1-2.7 17.4-4.9 3.4-3.3 4.9-6.2 4.8-9.4zm-249.7-173.3-325.1 177.1c-0.9 0.5-1.9 0.6-2.8 0.3s-1.7-0.9-2.2-1.8c-5.8-11-5.3-14.1-5.1-15.2 0-0.1 0.1-0.3 0.1-0.4-10.9 0.7-26.9 3.5-42.2 12.6-1.4 0.8-2.8 1.7-4.2 2.5-17.4 10.4-33.9 20.2-49.4 25.5-9 3.1-13.4 3.8-15.3 3.9h-0.7c-0.3 0-0.7 0-1.1-0.1-0.3-0.1-0.6-0.2-0.9-0.3 0 0-0.1 0-0.1-0.1-0.1 4.6 1.8 8.3 4.1 12.2 4.4 7.5 4 12.3 3 15-1.6 4.2-6.3 7-11.9 7-3.8 0-9.7-1.2-16.5-6.9l-0.6-0.5c-3.9-3.3-7.1-6-10.9-11.7-4.8-7.2-9.7-13-13.5-16-0.8-0.7-1.7-1.4-2.6-2.1-2.2-1.7-4.9-3.9-7.3-5.8-0.7 1.2-2.1 1.9-3.6 1.9-0.5 0-12.9-0.1-29.4-11.1-10-6.6-15.1-9.8-18.4-11.7 0 0.4-0.1 0.8-0.2 1.2-0.5 1.5-1.9 2.4-3.4 2.4-3.2 0-9.4 0.2-14.2 1.5-1.1 0.3-2.3 0.6-3.5 0.9-4.8 1.3-10.2 2.7-14.6 2.7-6 0-8.3-2.7-9.2-5.1-2.8-7 5.9-17.5 11.6-21.4 4.4-3 9-6.1 9.9-8.8 0.2-0.6 0.2-1 0.2-1v-0.1c-0.5-1.3-0.5-2.5 0.1-3.6 0.4-0.8 1.3-1.7 3.1-1.9h0.6c0.6 0 1.4 0.1 2.3 0.4-3.1-1.5-7.3-2.9-13.1-4.3-1.8-0.4-4.3-0.7-7.2-0.7-4.5 0-9.5 0.5-13.1 0.9-1.8 0.2-3.3 0.3-4.4 0.4-0.7 0-1.3 0.1-1.9 0.1-8.7 0-11.7-4.1-12.6-7.5-0.8-2.9 0-5.7 2.3-8.3 1.7-1.9 4.1-3.7 7.3-5.9 1.1-0.8 2.4-1.8 3.7-2.8 6.8-5.2 13.8-9.2 18.3-11.8 1.9-1.1 3.5-2 4.4-2.6l6.5-4.4c0.7-0.5 1.4-0.7 2.2-0.6l-0.1-0.1c-6.4-7.2-11.9-13-18.8-15.7-14.3-5.6-20.2-8.9-21.8-12.3l-0.1-0.2c-0.7-1.5-2.7-5.5 0.1-9 3.3-4.1 12.5-4.5 16.4-4.5 5.7 0 14.6 0.9 25 4.9 13.3 5.2 31 12.9 50.6 26.3 11.5 7.8 20.7 12.9 28.8 17.4 4.7 2.6 9.1 5 13.5 7.7 6.7 4.1 13.8 6.8 19.2 8.2-0.4-0.5-0.6-1.1-0.7-1.7-0.2-1.2 0.3-2.5 1.3-3.3 3.1-2.6 12.1-10.1 29.7-23.7 20.3-15.8 29.2-24.6 35-30.4 1.6-1.6 3-3 4.3-4.2 3-2.8 6.2-7.2 9.6-11.9 5.1-7.1 10.9-15.1 17.7-19.6 7.8-5.2 18.2-11.9 23.7-15.5 0.7-0.4 1.4-0.6 2.1-0.6-2.3-3.5-4.4-6.7-5.9-9.1-6.7-9.9-16.9-33.1-12.9-56.7 4.4-25.9 29.9-51.6 43.6-65.5l2.4-2.4c11.7-11.8 19.2-23.7 27.8-43.7 4.9-11.3 9.4-19.9 14.3-27.2 5.7-8.5 12-15.3 19.3-20.8 13.3-10.1 39.8-14.5 52.6-15.8-0.6-0.6-0.9-1.4-0.9-2.3-0.1-1.2 0.5-2.4 1.5-3.1s23.6-17 45.7-21.9c4-0.9 7.7-1.3 11.1-1.3 8 0 14.5 2.6 19.3 7.7 4 4.2 6.2 9.5 7.9 13.6 3.6 8.7 9.1 15.9 15.4 20.5 0.6 0.4 1.2 0.8 1.7 1.1 0-0.2 0-0.3 0.1-0.5 0.2-1 0.8-1.9 1.7-2.4 0.3-0.2 3.3-1.9 7.7-2.6 4.3-0.7 6.5-1.2 8.2-2.2 0.8-0.5 1.7-0.7 2.6-0.7 1.9 0 3.6 1 4.8 2.8 1.9 2.7 2.3 6.8 1.1 10l-0.2 0.5c-1.5 4-4.1 10.7-17.1 14-6.9 1.7-12.7 1.8-17.7 1.8-4 0-7.5 0.1-10.8 0.9-6.2 1.5-8.5 6.8-8.7 7.2-0.4 1.1-1.4 1.9-2.5 2.2-1.2 0.3-2.4 0-3.3-0.8-0.1-0.1-1.4-1.2-3.1-2.9 1.7 2.9 3.6 6.1 5.8 9.3 5.9 8.9 6.6 16.6 3.9 41.3-2.4 21.8-0.9 26.3 2.8 37.2 0.2 0.7 0.5 1.5 0.8 2.2 1.1 3.3 3.4 7.4 6.1 12.1 7 12.4 16.7 29.4 16.8 54 0 0.4 3.6 3.3 4.9 2.8 0.3-0.1 0.7-0.2 1-0.3 0.7-0.2 1.4-0.3 2.2-0.3 1.5-0.1 3-0.1 4.6-0.1 11.9 0 26.4 2.2 42 6.4 28.2 7.6 44.4 18.8 50.1 23.2 1 0.8 1.5 2 1.4 3.2-0.3 1.1-1 2.2-2.1 2.8z"/>
</g>
<g id="red_prohibitory_sign" transform="translate(-18.193 -18.008)">
	<line class="st1" x1="531.2" x2="531.6" y1="287.7" y2="287.1"/>
	<path class="st1" d="m829.7 520.9c0.1-0.3 0.2-0.6 0.2-0.9-6.2-1.6-13.1-5-19.2-9.7-2-1.5-4.2-3.3-6.5-5.1-8.1-6.4-18.1-14.4-26.7-18.3-4.3-2-8.4-2.9-12.8-2.9-4.3 0-8.9 0.9-14.1 2.8-6.8 2.5-14.5 5.3-24.7 5.3h-0.5c-0.1 0-2.1 3.4-2.1 3.4-29 97.9-119.6 169.2-226.9 169.2-52.3 0-100.6-17-139.8-45.7-0.2-0.1-0.3-0.2-0.5-0.3-0.5-0.4-1.1-0.8-1.6-1.2-0.1-0.1-0.2-0.1-0.3-0.2-11.6-8.7-22.4-18.5-32.2-29.1l62.4-34 8.2-4.4 332.7-181.3c0.2 0.6 5.1 13.3 5 14.2 4.9-1.1 10.3-2.3 14.3-2.5h1.7c0.1 0 9.6 0 12.9 2.4 0.8 0.6 1.3 1.4 1.4 2.4 12.6-4 26.8-9.8 37.8-15.7 5.1-2.7 20.5-10.1 35.8-15.1-0.1-0.5-0.2-0.9-0.3-1.4-0.1-0.4-0.4-1.7-0.4-1.9-30.8-135.2-140.8-240.2-278.6-263.7-3-0.5-6.1-1-9.1-1.4-4.4 0.6-8.3 0.7-11.9 0.7-4 0-7.5 0.1-10.8 0.9-6.2 1.5-8.5 6.8-8.7 7.2-0.4 1.1-1.4 1.9-2.5 2.2-1.2 0.3-2.4 0-3.3-0.8-0.1-0.1-1.4-1.2-3.1-2.9 1.7 2.9 3.6 6.1 5.8 9.3 5.9 8.9 6.6 16.6 3.9 41.3-2.4 21.8-0.9 26.3 2.8 37.2 0.2 0.7 0.5 1.5 0.8 2.2 0.9 2.8 2.7 6.2 4.9 9.9 1.4 0.2 2.8 0.3 4.2 0.5 56.7 7.5 107.1 35.1 143.7 75.4l-352.5 192-8.3 4.5-43.2 23.6c-1.9-7.1-3.4-14.3-4.6-21.6-0.2-1.3-0.4-2.7-0.6-4-16.6 9.9-32.4 19.1-47.2 24.3-9 3.1-13.4 3.8-15.3 3.9h-0.7c-0.3 0-0.7 0-1.1-0.1-0.3-0.1-0.6-0.2-0.9-0.3 0 0-0.1 0-0.1-0.1-0.1 4.6 1.8 8.3 4.1 12.2 4.4 7.5 4 12.3 3 15-1.6 4.2-6.3 7-11.9 7-3.8 0-9.7-1.2-16.5-6.9l-0.6-0.5c-3.9-3.3-7.1-6-10.9-11.7-2.3-3.4-4.5-6.4-6.7-9 0.3 1.6 0.7 3.2 1 4.8 33.6 155.4 172.1 272 337.8 272 157.9 0 291.1-105.8 332.5-250.5 0.2-0.5 0.7-2.2 0.8-2.6zm-676.9-132.6c14-122.1 91.6-224.9 198.8-274.4 1.6-0.7 3.1-1.4 4.7-2.1-0.5 1.1-1 2.3-1.5 3.5-8.6 20-16.2 31.8-27.8 43.7l-2.4 2.4c-13.7 13.8-39.2 39.6-43.6 65.5-4 23.6 6.2 46.7 12.9 56.7 1.6 2.4 3.7 5.6 5.9 9.1-0.7 0-1.5 0.2-2.1 0.6-5.5 3.5-15.9 10.3-23.7 15.5-6.8 4.5-12.6 12.6-17.7 19.6-3.4 4.7-6.6 9.2-9.6 11.9-1.3 1.2-2.7 2.6-4.3 4.2-5.8 5.8-14.7 14.6-35 30.4-17.7 13.7-26.7 21.2-29.7 23.7-1 0.8-1.4 2.1-1.3 3.3 0.1 0.6 0.3 1.2 0.7 1.7-5.4-1.4-12.6-4.1-19.2-8.2-1.8-1.1-3.7-2.2-5.5-3.3 0.1-1.1 0.3-2.4 0.4-3.8zm689.4 42.3v0.6c-4.2-1.2-8.3-2.3-12-3.2-6.2-1.5-11.3-3.3-14.4-4.6-1-0.4-2.2-0.3-3.2 0.2-0.3 0.2-0.7 0.4-0.9 0.7 0.5-2.4 1.4-5.1 2.7-8.1 2.7-6.1 10.5-14.6 16.5-19.9 3.1-2.7 6.1-5.1 9.1-7.3l0.3 3.3c1.2 11.7 1.8 23.6 1.8 35.7 0.1 1 0.1 1.8 0.1 2.6zm-2.3 37.7c-0.1 1.2-0.3 2.3-0.4 3.5-0.8 6.4-1.8 12.7-2.9 19-0.1 0.6-0.2 1.3-0.3 1.9-1.1-1-2.2-2.1-3.3-3.2-3.8-3.6-7.4-7-9.1-8.9-1.5-1.6-3.8-4.6-6.4-8.5-0.2-0.2-0.4-0.5-0.6-0.7 1-0.6 2.2-1.1 3.5-1.3 4.3-0.9 9.6-2 15.4-2 1.4 0 2.8 0.1 4.1 0.2z"/>
</g>
<g id="black_lines" transform="translate(-18.193 -18.008)">
	<path class="st0" d="m198.9 487.8 0.4 0.2"/>
	<path class="st2" d="m407.1 283.3c-8 0-14-8.6-13.4-20.8 0.6-12.5 7.6-20.8 15.1-20.8 7 0 13.7 10.5 13.3 22-0.5 11.6-6.8 19.6-15 19.6zm21.5-76.3c3.4-5.4 2.6-9 1-9.6s-2.2 0.4-2.9 1.7-3.4 4.9-8.7 5.1c-4.9 0.1-8.5-1.7-9.8-2.7s-2.7-1.9-3.4-1.1c-1.1 1.3 0.5 8.2 7.5 11.5 6.8 3.1 12.9 0.6 16.3-4.9zm-30.9-85.1c-4.9 2.3-8.9 5.8-8.2 13.3 0.6 5.9 2.7 12.7 3.2 13.7s0.6 1.9 3.5 1.8c3.1-0.1 3.9-0.3 5.4-0.8 3.9-1.4 5.6-3.8 5.1-6.1-0.4-2.3-2.2-9.4-2.5-11.1-0.4-2-0.9-2.3 0-3s2.4 1.4 3.2 3.4c0.8 2.1 1.2 2.4 1.9 2.6s0.5-1.1 0.6-3.4c0.1-2.4 0-4.5-1.9-7.5-1.8-2.6-4.9-5.4-10.3-2.9zm119.6 473.7c-0.7 0-9.6 0.2-19.3-1.9s-38.7-10.4-62.3-21c-21.3-9.6-35.8-19.8-41.3-24l-9.9 5.4c2.9 2 9.2 6.2 18.4 11.3-4 6.2-13.6 20.1-23.5 28.4-9.1 7.8-23.3 17.2-28.7 20.7 2.4 1.9 4.8 3.7 7.3 5.5 5.4-3.4 24.1-15.4 34.7-27.1 8.9-9.9 15.6-18.8 18.6-23 10.3 5.3 23 11.1 37.6 16.1 40.8 14 53.7 12.6 63 12.3 7.1-0.2 7.4-1.9 7.3-2.2 0-0.2-1.2-0.5-1.9-0.5zm-127.6-286.8c-0.7 1 8 13.2 17.6 13.1s13.9-5.7 15.1-7.3 2.8-7.3 1.2-8.2-2.4-0.3-5.5 2.3c-3 2.5-5.5 4.6-13.1 4.4-10.7-0.1-13.9-6.1-15.3-4.3zm57.2-174.9c-1.3 2.4-2.2 4.3-3.7 10.3-1.2 4.9-3.2 11.7 6 13.1 3.1 0.5 7.7 1.3 8.5-4.5 0.6-4.7 1.9-12.8 2.3-13.3 0.4-0.6 0.9 1.1 1.3 3.1 0.4 1.9 0.4 3.7 1.2 3.4 0.7-0.3 0.6-6.9 0-9.8s-1-5.5-3.4-6.5c-2.2-1.1-8.7-2.1-12.2 4.2zm204.1 146.2c-6.6-5-28.1-20.4-54.4-28.5-20.2-6.2-38.3-7.2-47.6-7.8-0.4 0-0.9-0.1-1.2-0.2-2.1-15.7-10.7-35.2-16.7-44.9-6.4-10.2-10.5-15.3-12.5-29.6-1.9-13.3 2.5-30.8 1.3-42.8-1-10.9-2.1-16.5-1.6-23.4 0.3-4.1 0.9-6 3.2-8 2.7-2.4 4.5-2.5 9.9-3.4 6.1-1 18.2-0.8 28.2-6.5s15.1-21.5 9.8-26.9c-7.4-7.6-21.7 3.4-28.6 1.3-3.7-1.2-7.4-8.6-11.3-14.9s-5.7-24.5-28.5-26.4c-22.9-2-71.2 29.3-71.2 29.3s-36.9 5.1-51.9 22.3c-13 14.9-24 41-35.4 63-10.6 20.4-30.7 34.4-39.9 45-8.4 9.6-25 27.2-28.8 53.2-2.7 18.6 9.1 41.5 19.8 57-5.4 3.7-18.7 13.1-29.1 23.1-9.7 9.5-15 22-23 29.7-6.1 5.8-68.7 55-70.6 56.5-8.3-3.9-17.3-8.3-23.6-12.2-20.7-12.8-55.5-31.4-73.5-39.1-31.7-13.6-46.194-8.6886-49.994-2.7886s-2.6061 14.089 7.1939 19.289c9.5 5 12.9 6.5 18.4 10 3.1 1.9 7 5.4 7 5.4l1.5 2.1s-3.8 5.4-13.9 12.6c-8.4 6-27.4 14.8-25.7 24.8 0.5 2.6 2.5 5.6 4.8 7.1 5.5 3.6 14.4 4.6 21.1 4.3 11.2-0.5 19.4 0.2 20.1 2s-2.2 7.7-9.2 13.3-18.7 14.3-11 24c6.1 7.6 19.8 3 25.7 1.9 4.7-0.9 15.1-4 22.3-4.3 4 2.8 7.9 6.4 10.8 8.5 6.5 4.6 15.9 10.5 24.2 11.7 9 1.3 18 4.5 21.7 6.6 2.3 1.3 6.4 5.3 9.2 8.8s14.8 16.1 18.6 19.9c4 4 12.9 6.8 20.1 4.8 7.5-2 12.2-7.4 10.1-14.9-1.1-3.9-3.5-9.4-5.4-14.4 2.6-0.7 24.9-7.1 38.4-14.7 13.9-7.8 34.1-22.1 43.5-26 5.1-2.1 12.7-4.5 19.5-6.3 0.6 0.1 1 0.2 1.2 0.5 1.1 2.1 5.7 12.5 7.1 15.4l8.3-4.5c-1.3-2.5-5.2-10.1-4.7-12.8 0.1-0.6 0.4-1 0.8-1.3 0.4 0 0.8-0.1 1.2-0.1 5.8-0.3 11.2-0.8 11.3-1.5s-1.3-1.9-5.4-2-30.3-1.7-55.5 13.2c-19.2 11.4-36.6 22-52.9 27.7-8.9 3.1-12.9 3.6-14.3 3.7h-0.7c-0.1 0-0.1 0-0.2-0.1-0.1-0.9-0.1-1.7 0.1-2.4 1.3-4.7 6-8 4.7-9.2-0.6-0.6-6.3-0.7-9.2 8.7-2.7 8.7 0.4 15 3.5 20.3s3.7 9.3 2.7 11.8c-1.9 5-11.7 7.7-22.6-1.4-4.2-3.6-7.1-5.9-10.9-11.5-5-7.4-10.2-13.6-14.2-16.9-6.6-5.3-14.1-11.4-16.3-12.2-2.2-0.7-4.8-0.3-2.9 1.5 0.6 0.5 2.1 1.9 4 3.7-0.1 0.2-0.2 0.3-0.5 0.3-1.6 0-12.9-0.8-27.4-10.5-14.5-9.6-18.9-12.2-22.7-13.9-3.8-1.8-6.7-3.1-7.1-2.4s-0.6 1 1.6 3.6c0.6 0.7 2 2.3 4.1 4.1-3.9 0-10 0.3-15.1 1.6-7.7 1.9-20.8 6.5-23.1 0.8-1.7-4.3 4.7-13.2 10.3-17s10-6.9 11.3-10.6-0.7-4.1 0.4-4.3c1.2-0.1 6.4 1.5 9.3 3.9 2.9 2.5 6.9 4.6 7.3 4.5 0.6-0.2 1.7-0.1 1.2-1.3-0.7-1.8-2.4-4.7-4.6-7.1-3.8-4.3-9.6-8-23-11.2-7.9-1.9-21 0.3-25.9 0.6-4.8 0.3-9.6-0.5-10.8-4.8s3.5-6.7 11.9-13.1c9.6-7.2 19.4-12.2 22.6-14.4s6.5-4.4 6.5-4.4 3.1 2.4 6.6 6.4c3.1 3.6 5.6 9.3 7.3 8.4 1.8-0.9-4-13-11.1-20.9-7-7.9-12.7-13.7-20.2-16.6s-18.4-7.4-19.9-10.5c-0.6-1.1-1.9-3.5-0.5-5.3 2.6-3.3 19.1-5.6 37.2 1.5 15.1 5.9 31.8 13.6 49.9 25.9s30.3 17.8 42.5 25.2c10.4 6.4 22.1 9.7 27.8 9.8s10.7-0.1 7.2-2c-1.3-0.7-5.5-2.5-11-5 3.3-2.8 12.2-10.2 29.6-23.6 26.1-20.3 33.6-29.3 39.6-34.9 7.9-7.3 16.2-24.2 26.8-31.2 8-5.3 18.9-12.4 23.7-15.5 1.9 2.4 3.7 4.4 5.2 6 8.3 8.7 11.4 12.8 11.9 12.7s1.3-0.6 1.3-0.6-14.7-23.2-21.1-32.9c-6.5-9.7-16-31.9-12.3-54 4.4-26.4 32.7-53.4 45-65.9s20-24.8 28.6-44.8 17.8-35.4 32.5-46.6 46.8-14.9 54.7-15.3 15.6 0.7 16.1 0.7c0.4 0 0.1-1.3-1.3-2.3-1.5-1-6.5-2.8-11.1-3.2-4.5-0.4-5.3-0.9-5.3-0.9s22.8-16.5 44.3-21.3c24.5-5.5 30.2 8.3 34.2 17.8s9.9 17.2 16.7 22.1c6.8 4.8 12.8 5.1 13.6 5.1 1.7 0-1-1.2-2.6-2.8-2.1-1.9-3.5-4-3.5-4s2.6-1.5 6.5-2.2c4.3-0.7 7.1-1.3 9.4-2.6s4.7 3.7 3.2 7.6c-1.5 3.8-3.1 9.3-14.8 12.3-11.9 3-20.2 0.7-28.5 2.7-8.4 2.1-11.3 9.4-11.3 9.4s-5.2-4.6-8.3-8.7-7.5-6.4-8.7-5c-0.3 0.4 0.9 2 2.8 5.5 2.6 4.7 6.3 11.7 11.4 19.4s6 14.3 3.3 38.8c-2.7 24-0.6 28.1 3.7 41s22.6 31.8 22.8 64.9-25.8 59-29.1 63-8.6 8.6-7.6 9.4c0.6 0.5 1.6-0.5 2.7-1 1.2-0.5 12.1-6.4 24.6-22.6 11.1-14.4 17.6-31.9 19.2-42.6 0.6-0.2 1.3-0.4 2.2-0.4 8.8-0.5 23.7 0.3 45.5 6.2 28.1 7.5 44 18.9 48.7 22.6zm-256.1-184.1c-6.3 5.5-7.9 11.9-8.1 13.4-0.4 2.6 1.5 3.5 4 3.4 2.4-0.1 2.9-0.3 3.4-3.3 0.7-4 3.6-7.7 6.2-10.5 4.7-5.1 6.6-4.1 7.2-6.7 0.1-1.1-6.5-1.8-12.7 3.7zm493.1 350.3c-7.6-5.8-19.8-8.3-33.3-12.4-7.7-2.4-15.4-3.6-21.8-5.7-7.6-2.4-13.4-5.5-16.2-7.1 1.8-5.3 6-11.9 11.9-17.8 15.1-15.1 34.6-27.1 38.6-30.6 7.6-6.6 9.3-10.4 6-17.8-1.9-4.2-13.6-14.6-50.4 0.7-21.1 8.8-42 19.1-56 25.7-4-0.9-9.2-1.7-13.8-1.8-5.7 0-11.2 0.5-16.4 1.2-1.4-1.2-4.2-3.5-6.6-5.8-3.6-3.5-4.4-5.4-4.6-6.3l-7.1 3.8c0.8 0.8 2.1 2.2 3.7 4 2.4 2.6 4 4.6 4.9 5.8-0.2 0-0.4 0.1-0.6 0.1-6.3 1-10.9 0.6-12.2 1.6-1 0.8 5 4.4 9.2 4 4.3-0.4 15.4-3.7 21.7-4 4.8-0.2 10.9 0.6 12.3 1.7-2.4 1-4.3 1.7-5.6 2.1-8.4 2.2-12 2.5-14.5 2.9s3.1 4 17.8 0 32.3-11 45.5-18.1c13.2-7 61.3-28.5 68.2-15.4 5.8 11-15.9 15.7-39.9 36.6-6.3 5.5-14.4 14.3-17.4 21.2-5.2 11.8-4.2 20.5-1.5 23.4 3.1 3.3 4.7 2.5 5.6 2.5 1 0 2.7-0.8 2.7-0.8s-2.3-2.2-3.2-4.4c-0.6-1.3-1-4.4-0.3-8.7 3.2 1.3 8.4 3.1 14.9 4.7 14.7 3.6 37.4 10.5 45.3 13.2 7.8 2.7 11.8 6.8 14.7 10.4 2.9 3.5 4.5 6.5-1 11.8-5.8 5.7-24.6 4.5-37.5-0.1-12.3-4.4-23.2-2.2-31.3-0.5-6.6 1.4-10.9 6.7-9.8 8.5 0.3 0.6 1.3 0 4.5-0.8 1.7 2.5 4.6 6.7 6.8 9 4 4.2 16.6 15.8 21.1 20.7 5.5 6.1 5.3 11.3-0.7 13-7.7 2.2-19.6-2.6-28.6-9.5-9-6.8-22.4-18.6-33.9-23.9-10-4.6-19.3-4-29.7-0.2-8.7 3.2-17.2 6.2-30.1 4.7-5.9-0.7-9.5-2.1-11.6-3.2 1.1-0.3 2.1-0.6 3-0.8 9.6-2.2 15.1-3.1 14.9-4.5s-7.3-3.9-15.9-1.4-24.6 12.5-39.8 15.9c-15.3 3.3-29.7 2.3-30.1-7-0.4-9.4 3.1-18.8 16-31.7 12.8-12.8 12.3-19.4 10.4-23.5-1.3-2.9-3.3-4.6-3.9-4.4-1.9 0.8 1 2.8 0.2 6.5-0.3 1.3-1.2 3.2-2.4 5.5-2.4-1.2-9.7-5.2-15.1-11.5-3.9-4.4-6.6-8.4-8.2-11l-6.6 3.6c1.9 2.7 5.8 7.9 9 11.6 4.4 5.1 13.1 10.9 17 13.4-1.7 2.5-3.7 5-5.5 7.1-5.2 6-22.3 21.1-17.1 38.2 3.6 11.9 24 14.1 35.1 9.8 7.2-2.8 18.7-8 28.5-11.8 3.5 1.8 10.8 4.8 21.6 6.2 12.6 1.7 29.3-1.9 40.6-5.4 11.4-3.5 23 0.6 29.5 6.2s18.5 18.1 30.8 23.3c10.8 4.6 24 5.6 29.6-1.7 5.7-7.2-3.2-18.5-16-29.7-7.5-6.6-10.4-11.8-11.6-15 6.9-1.3 11.1-2.6 33.9 1.4 11.7 2 21 1.4 27.7-0.3 7.5-1.9 11.9-5.4 13.3-11.4 1.1-5.9-2.1-11-8.7-16zm-424.7-338.2c2.6 2.9 8.8 8.8 10.2 7.8 1.6-1.2 0.9-2 0-3.9s-2.8-6.8-6.1-10.8c-3.2-4-5.6-6.6-6.7-6.8-1.1-0.3-3.7-0.1-5.7 0.7-2.5 1.1-3.5 2.2-2.7 3.4 1.2 1.8 6 4 11 9.6z"/>
<path class="st2" d="m407.1 283.3c-8 0-14-8.6-13.4-20.8 0.6-12.5 7.6-20.8 15.1-20.8 7 0 13.7 10.5 13.3 22-0.5 11.6-6.8 19.6-15 19.6zm21.5-76.3c3.4-5.4 2.6-9 1-9.6s-2.2 0.4-2.9 1.7-3.4 4.9-8.7 5.1c-4.9 0.1-8.5-1.7-9.8-2.7s-2.7-1.9-3.4-1.1c-1.1 1.3 0.5 8.2 7.5 11.5 6.8 3.1 12.9 0.6 16.3-4.9zm-30.9-85.1c-4.9 2.3-8.9 5.8-8.2 13.3 0.6 5.9 2.7 12.7 3.2 13.7s0.6 1.9 3.5 1.8c3.1-0.1 3.9-0.3 5.4-0.8 3.9-1.4 5.6-3.8 5.1-6.1-0.4-2.3-2.2-9.4-2.5-11.1-0.4-2-0.9-2.3 0-3s2.4 1.4 3.2 3.4c0.8 2.1 1.2 2.4 1.9 2.6s0.5-1.1 0.6-3.4c0.1-2.4 0-4.5-1.9-7.5-1.8-2.6-4.9-5.4-10.3-2.9zm119.6 473.7c-0.7 0-9.6 0.2-19.3-1.9s-38.7-10.4-62.3-21c-21.3-9.6-35.8-19.8-41.3-24l-9.9 5.4c2.9 2 9.2 6.2 18.4 11.3-4 6.2-13.6 20.1-23.5 28.4-9.1 7.8-23.3 17.2-28.7 20.7 2.4 1.9 4.8 3.7 7.3 5.5 5.4-3.4 24.1-15.4 34.7-27.1 8.9-9.9 15.6-18.8 18.6-23 10.3 5.3 23 11.1 37.6 16.1 40.8 14 53.7 12.6 63 12.3 7.1-0.2 7.4-1.9 7.3-2.2 0-0.2-1.2-0.5-1.9-0.5zm-127.6-286.8c-0.7 1 8 13.2 17.6 13.1s13.9-5.7 15.1-7.3 2.8-7.3 1.2-8.2-2.4-0.3-5.5 2.3c-3 2.5-5.5 4.6-13.1 4.4-10.7-0.1-13.9-6.1-15.3-4.3zm57.2-174.9c-1.3 2.4-2.2 4.3-3.7 10.3-1.2 4.9-3.2 11.7 6 13.1 3.1 0.5 7.7 1.3 8.5-4.5 0.6-4.7 1.9-12.8 2.3-13.3 0.4-0.6 0.9 1.1 1.3 3.1 0.4 1.9 0.4 3.7 1.2 3.4 0.7-0.3 0.6-6.9 0-9.8s-1-5.5-3.4-6.5c-2.2-1.1-8.7-2.1-12.2 4.2zm204.1 146.2c-6.6-5-28.1-20.4-54.4-28.5-20.2-6.2-38.3-7.2-47.6-7.8-0.4 0-0.9-0.1-1.2-0.2-2.1-15.7-10.7-35.2-16.7-44.9-6.4-10.2-10.5-15.3-12.5-29.6-1.9-13.3 2.5-30.8 1.3-42.8-1-10.9-2.1-16.5-1.6-23.4 0.3-4.1 0.9-6 3.2-8 2.7-2.4 4.5-2.5 9.9-3.4 6.1-1 18.2-0.8 28.2-6.5s15.1-21.5 9.8-26.9c-7.4-7.6-21.7 3.4-28.6 1.3-3.7-1.2-7.4-8.6-11.3-14.9s-5.7-24.5-28.5-26.4c-22.9-2-71.2 29.3-71.2 29.3s-36.9 5.1-51.9 22.3c-13 14.9-24 41-35.4 63-10.6 20.4-30.7 34.4-39.9 45-8.4 9.6-25 27.2-28.8 53.2-2.7 18.6 9.1 41.5 19.8 57-5.4 3.7-18.7 13.1-29.1 23.1-9.7 9.5-15 22-23 29.7-6.1 5.8-68.7 55-70.6 56.5-8.3-3.9-17.3-8.3-23.6-12.2-20.7-12.8-55.5-31.4-73.5-39.1-31.7-13.6-46.194-8.6886-49.994-2.7886s-2.6061 14.089 7.1939 19.289c9.5 5 12.9 6.5 18.4 10 3.1 1.9 7 5.4 7 5.4l1.5 2.1s-3.8 5.4-13.9 12.6c-8.4 6-27.4 14.8-25.7 24.8 0.5 2.6 2.5 5.6 4.8 7.1 5.5 3.6 14.4 4.6 21.1 4.3 11.2-0.5 19.4 0.2 20.1 2s-2.2 7.7-9.2 13.3-18.7 14.3-11 24c6.1 7.6 19.8 3 25.7 1.9 4.7-0.9 15.1-4 22.3-4.3 4 2.8 7.9 6.4 10.8 8.5 6.5 4.6 15.9 10.5 24.2 11.7 9 1.3 18 4.5 21.7 6.6 2.3 1.3 6.4 5.3 9.2 8.8s14.8 16.1 18.6 19.9c4 4 12.9 6.8 20.1 4.8 7.5-2 12.2-7.4 10.1-14.9-1.1-3.9-3.5-9.4-5.4-14.4 2.6-0.7 24.9-7.1 38.4-14.7 13.9-7.8 34.1-22.1 43.5-26 5.1-2.1 12.7-4.5 19.5-6.3 0.6 0.1 1 0.2 1.2 0.5 1.1 2.1 5.7 12.5 7.1 15.4l8.3-4.5c-1.3-2.5-5.2-10.1-4.7-12.8 0.1-0.6 0.4-1 0.8-1.3 0.4 0 0.8-0.1 1.2-0.1 5.8-0.3 11.2-0.8 11.3-1.5s-1.3-1.9-5.4-2-30.3-1.7-55.5 13.2c-19.2 11.4-36.6 22-52.9 27.7-8.9 3.1-12.9 3.6-14.3 3.7h-0.7c-0.1 0-0.1 0-0.2-0.1-0.1-0.9-0.1-1.7 0.1-2.4 1.3-4.7 6-8 4.7-9.2-0.6-0.6-6.3-0.7-9.2 8.7-2.7 8.7 0.4 15 3.5 20.3s3.7 9.3 2.7 11.8c-1.9 5-11.7 7.7-22.6-1.4-4.2-3.6-7.1-5.9-10.9-11.5-5-7.4-10.2-13.6-14.2-16.9-6.6-5.3-14.1-11.4-16.3-12.2-2.2-0.7-4.8-0.3-2.9 1.5 0.6 0.5 2.1 1.9 4 3.7-0.1 0.2-0.2 0.3-0.5 0.3-1.6 0-12.9-0.8-27.4-10.5-14.5-9.6-18.9-12.2-22.7-13.9-3.8-1.8-6.7-3.1-7.1-2.4s-0.6 1 1.6 3.6c0.6 0.7 2 2.3 4.1 4.1-3.9 0-10 0.3-15.1 1.6-7.7 1.9-20.8 6.5-23.1 0.8-1.7-4.3 4.7-13.2 10.3-17s10-6.9 11.3-10.6-0.7-4.1 0.4-4.3c1.2-0.1 6.4 1.5 9.3 3.9 2.9 2.5 6.9 4.6 7.3 4.5 0.6-0.2 1.7-0.1 1.2-1.3-0.7-1.8-2.4-4.7-4.6-7.1-3.8-4.3-9.6-8-23-11.2-7.9-1.9-21 0.3-25.9 0.6-4.8 0.3-9.6-0.5-10.8-4.8s3.5-6.7 11.9-13.1c9.6-7.2 19.4-12.2 22.6-14.4s6.5-4.4 6.5-4.4 3.1 2.4 6.6 6.4c3.1 3.6 5.6 9.3 7.3 8.4 1.8-0.9-4-13-11.1-20.9-7-7.9-12.7-13.7-20.2-16.6s-18.4-7.4-19.9-10.5c-0.6-1.1-1.9-3.5-0.5-5.3 2.6-3.3 19.1-5.6 37.2 1.5 15.1 5.9 31.8 13.6 49.9 25.9s30.3 17.8 42.5 25.2c10.4 6.4 22.1 9.7 27.8 9.8s10.7-0.1 7.2-2c-1.3-0.7-5.5-2.5-11-5 3.3-2.8 12.2-10.2 29.6-23.6 26.1-20.3 33.6-29.3 39.6-34.9 7.9-7.3 16.2-24.2 26.8-31.2 8-5.3 18.9-12.4 23.7-15.5 1.9 2.4 3.7 4.4 5.2 6 8.3 8.7 11.4 12.8 11.9 12.7s1.3-0.6 1.3-0.6-14.7-23.2-21.1-32.9c-6.5-9.7-16-31.9-12.3-54 4.4-26.4 32.7-53.4 45-65.9s20-24.8 28.6-44.8 17.8-35.4 32.5-46.6 46.8-14.9 54.7-15.3 15.6 0.7 16.1 0.7c0.4 0 0.1-1.3-1.3-2.3-1.5-1-6.5-2.8-11.1-3.2-4.5-0.4-5.3-0.9-5.3-0.9s22.8-16.5 44.3-21.3c24.5-5.5 30.2 8.3 34.2 17.8s9.9 17.2 16.7 22.1c6.8 4.8 12.8 5.1 13.6 5.1 1.7 0-1-1.2-2.6-2.8-2.1-1.9-3.5-4-3.5-4s2.6-1.5 6.5-2.2c4.3-0.7 7.1-1.3 9.4-2.6s4.7 3.7 3.2 7.6c-1.5 3.8-3.1 9.3-14.8 12.3-11.9 3-20.2 0.7-28.5 2.7-8.4 2.1-11.3 9.4-11.3 9.4s-5.2-4.6-8.3-8.7-7.5-6.4-8.7-5c-0.3 0.4 0.9 2 2.8 5.5 2.6 4.7 6.3 11.7 11.4 19.4s6 14.3 3.3 38.8c-2.7 24-0.6 28.1 3.7 41s22.6 31.8 22.8 64.9-25.8 59-29.1 63-8.6 8.6-7.6 9.4c0.6 0.5 1.6-0.5 2.7-1 1.2-0.5 12.1-6.4 24.6-22.6 11.1-14.4 17.6-31.9 19.2-42.6 0.6-0.2 1.3-0.4 2.2-0.4 8.8-0.5 23.7 0.3 45.5 6.2 28.1 7.5 44 18.9 48.7 22.6zm-256.1-184.1c-6.3 5.5-7.9 11.9-8.1 13.4-0.4 2.6 1.5 3.5 4 3.4 2.4-0.1 2.9-0.3 3.4-3.3 0.7-4 3.6-7.7 6.2-10.5 4.7-5.1 6.6-4.1 7.2-6.7 0.1-1.1-6.5-1.8-12.7 3.7zm493.1 350.3c-7.6-5.8-19.8-8.3-33.3-12.4-7.7-2.4-15.4-3.6-21.8-5.7-7.6-2.4-13.4-5.5-16.2-7.1 1.8-5.3 6-11.9 11.9-17.8 15.1-15.1 34.6-27.1 38.6-30.6 7.6-6.6 9.3-10.4 6-17.8-1.9-4.2-13.6-14.6-50.4 0.7-21.1 8.8-42 19.1-56 25.7-4-0.9-9.2-1.7-13.8-1.8-5.7 0-11.2 0.5-16.4 1.2-1.4-1.2-4.2-3.5-6.6-5.8-3.6-3.5-4.4-5.4-4.6-6.3l-7.1 3.8c0.8 0.8 2.1 2.2 3.7 4 2.4 2.6 4 4.6 4.9 5.8-0.2 0-0.4 0.1-0.6 0.1-6.3 1-10.9 0.6-12.2 1.6-1 0.8 5 4.4 9.2 4 4.3-0.4 15.4-3.7 21.7-4 4.8-0.2 10.9 0.6 12.3 1.7-2.4 1-4.3 1.7-5.6 2.1-8.4 2.2-12 2.5-14.5 2.9s3.1 4 17.8 0 32.3-11 45.5-18.1c13.2-7 61.3-28.5 68.2-15.4 5.8 11-15.9 15.7-39.9 36.6-6.3 5.5-14.4 14.3-17.4 21.2-5.2 11.8-4.2 20.5-1.5 23.4 3.1 3.3 4.7 2.5 5.6 2.5 1 0 2.7-0.8 2.7-0.8s-2.3-2.2-3.2-4.4c-0.6-1.3-1-4.4-0.3-8.7 3.2 1.3 8.4 3.1 14.9 4.7 14.7 3.6 37.4 10.5 45.3 13.2 7.8 2.7 11.8 6.8 14.7 10.4 2.9 3.5 4.5 6.5-1 11.8-5.8 5.7-24.6 4.5-37.5-0.1-12.3-4.4-23.2-2.2-31.3-0.5-6.6 1.4-10.9 6.7-9.8 8.5 0.3 0.6 1.3 0 4.5-0.8 1.7 2.5 4.6 6.7 6.8 9 4 4.2 16.6 15.8 21.1 20.7 5.5 6.1 5.3 11.3-0.7 13-7.7 2.2-19.6-2.6-28.6-9.5-9-6.8-22.4-18.6-33.9-23.9-10-4.6-19.3-4-29.7-0.2-8.7 3.2-17.2 6.2-30.1 4.7-5.9-0.7-9.5-2.1-11.6-3.2 1.1-0.3 2.1-0.6 3-0.8 9.6-2.2 15.1-3.1 14.9-4.5s-7.3-3.9-15.9-1.4-24.6 12.5-39.8 15.9c-15.3 3.3-29.7 2.3-30.1-7-0.4-9.4 3.1-18.8 16-31.7 12.8-12.8 12.3-19.4 10.4-23.5-1.3-2.9-3.3-4.6-3.9-4.4-1.9 0.8 1 2.8 0.2 6.5-0.3 1.3-1.2 3.2-2.4 5.5-2.4-1.2-9.7-5.2-15.1-11.5-3.9-4.4-6.6-8.4-8.2-11l-6.6 3.6c1.9 2.7 5.8 7.9 9 11.6 4.4 5.1 13.1 10.9 17 13.4-1.7 2.5-3.7 5-5.5 7.1-5.2 6-22.3 21.1-17.1 38.2 3.6 11.9 24 14.1 35.1 9.8 7.2-2.8 18.7-8 28.5-11.8 3.5 1.8 10.8 4.8 21.6 6.2 12.6 1.7 29.3-1.9 40.6-5.4 11.4-3.5 23 0.6 29.5 6.2s18.5 18.1 30.8 23.3c10.8 4.6 24 5.6 29.6-1.7 5.7-7.2-3.2-18.5-16-29.7-7.5-6.6-10.4-11.8-11.6-15 6.9-1.3 11.1-2.6 33.9 1.4 11.7 2 21 1.4 27.7-0.3 7.5-1.9 11.9-5.4 13.3-11.4 1.1-5.9-2.1-11-8.7-16zm-424.7-338.2c2.6 2.9 8.8 8.8 10.2 7.8 1.6-1.2 0.9-2 0-3.9s-2.8-6.8-6.1-10.8c-3.2-4-5.6-6.6-6.7-6.8-1.1-0.3-3.7-0.1-5.7 0.7-2.5 1.1-3.5 2.2-2.7 3.4 1.2 1.8 6 4 11 9.6z"/></g>
<g transform="translate(0,-26)" fill="#fff" aria-label="GHoSTBUSTERS"><path d="m1151.5 403.82q7.4667 0 10.667 2.6667 3.7333 2.1333 7.4666 4.2667 7.4667 3.7333 8 5.3333 1.0667 1.6 1.6 3.2 4.2667 5.8667 5.3333 10.133 1.6 3.7333 2.1334 6.9333 0.5333 1.0667 0 16.533l-2.1334 52.8q-1.0666 31.467-36.267 31.467-48.533 0-77.867-45.867-5.3333-6.9333-10.667-13.867-4.8-6.9333-8-19.2-7.4666-29.867-7.4666-66.133 0-64.533 30.933-107.73 30.933-43.733 86.4-43.733 34.667 0 58.667 27.2 7.4666 8 26.133 29.333 1.0666 2.6667 2.6666 2.6667 5.8667 0 5.3334 0.53334-0.5334 0.53333-0.5334 0.53333 7.4667 0 7.4667-3.7333l1.6-84.8t-36.267-6.9333q-33.6-5.8667-65.6-5.8667-82.667 0-141.87 51.733-65.6 57.067-65.6 151.47 0 76.267 44.267 124.27 45.867 51.2 123.2 51.2 62.4 0 112.53-18.667 18.667-6.9333 38.933-17.067v-91.733q0-30.933 28.8-46.933z"/><path d="m1589.9 404.35v104.53q0 21.867-2.1333 29.333-4.2667 16.533-19.733 16.533h-5.3334v14.933h134.4v-14.933h-5.3333q-15.467 0-19.733-16.533-2.1333-7.4667-2.1333-29.333 0-60.267 1.0666-120l1.6-120q0.5334-22.4 2.1334-29.333 4.8-16.533 19.733-16.533h5.3333v-14.933h-137.07v14.933h5.3334q15.467 0 19.733 16.533 2.1333 7.4667 2.1333 29.333l0.5333 91.2h-134.93q0-52.267 1.0667-91.2 0.5333-22.933 2.1333-29.333 4.8-16.533 19.733-16.533h5.3333v-14.933h-137.07v14.933h5.3333q15.467 0 19.733 16.533 2.1333 7.4667 2.1333 29.333v240q0 21.867-2.1333 29.333-4.2667 16.533-19.733 16.533h-5.3333v14.933h134.4v-14.933h-5.3334q-15.467 0-19.733-16.533-2.1333-7.4667-2.1333-29.333v-55.467q0-21.867 0.5333-49.067z"/><path d="m1926.4 250.22q42.133 0 66.133 44.267 6.9333 13.333 9.0666 19.733 4.2667 10.133 6.9334 24 8 41.6 8 54.933 0 20.267-8 57.067-4.2667 19.2-17.6 41.067-22.933 38.4-60.8 38.4-42.133 0-66.133-45.867-9.0666-16.533-9.6-17.6-3.7333-8.5333-6.4-22.4-7.4666-37.867-7.4666-57.6t6.4-51.2q3.7333-18.667 15.467-40.533 22.933-44.267 64-44.267zm13.333-50.667q-87.467 0-141.87 58.667-50.667 54.4-50.667 134.93 0 90.133 51.2 139.2 47.467 45.867 122.13 45.867 87.467 0 139.2-56.533 50.133-54.4 50.133-140.8 0-78.933-49.067-130.13t-121.07-51.2z"/><path d="m2396.8 213.42q-0.5334 0-5.3333 2.1333-4.8 2.1333-9.0667 1.0667-6.9333-4.2667-23.467-10.133-36.267-6.9333-60.8-6.9333-62.933 0-99.2 35.2-33.067 32-33.067 72 0 45.867 29.333 75.2 21.333 21.333 69.867 43.2 13.333 3.2 36.267 11.733 11.2 4.8 28.8 15.467 15.467 14.4 18.667 21.867 4.2667 9.6 0.5333 19.733-5.8666 16-19.2 28.267-14.933 13.333-45.867 13.333-8 0-34.133-6.9333-8.5333-2.1333-29.333-11.733-17.067-7.4667-29.333-21.333-6.4-5.8667-27.2-24.533l1.0667 41.067v50.667q1.0666 0 8.5333-2.1333 5.8666-1.6 10.133-0.53333 7.4667 4.2667 24 10.133 40.533 7.4667 73.067 7.4667 60.8 0 99.733-31.467 38.933-32 38.933-77.867 0-58.667-60.267-96.533-7.4667-4.8-26.133-10.133-21.867-6.4-29.867-10.133-14.4-5.3333-38.4-16.533-11.2-6.4-27.733-18.667-4.8-4.8-10.667-22.4-1.6-4.2667 0-12.8 1.0666-8 4.2666-12.267 9.6-12.8 11.2-14.4 2.1333-2.1333 10.667-6.4 17.6-9.0667 38.933-9.0667 19.2 0 36.267 5.3333 20.267 6.4 36.267 17.067 18.667 12.267 32.533 30.933z"/><path d="m2703 253.95q-17.067-0.53333-55.467-1.6-0.5333 21.333-1.0666 46.933-1.0667 35.733-1.6 144l-0.5334 65.6q0 21.867 2.1334 29.333 4.2666 16.533 19.733 16.533h5.3333v14.933h-134.4v-14.933h5.3333q15.467 0 19.733-16.533 2.1334-7.4667 2.1334-29.333l-0.5334-256.53q-10.667 0.53333-44.267 0.53333-22.933 0-32 1.6-13.333 2.1333-26.667 11.2-5.8667 3.7333-9.0667 6.9333-5.3333 5.3333-5.3333 11.2l-0.5334-22.933v-52.8h317.87l-0.5333 34.667v44.267q-16.533-28.8-36.267-31.467z"/><path d="m2906.2 488.62q0-9.6 0-14.933-0.5333-5.8667-0.5333-14.933 0-28.267 0.5333-56.533h26.133q51.2 0 75.733 26.133 11.2 12.267 15.467 26.667 4.2667 13.867 4.2667 21.867 0 17.067-4.2667 25.6-3.2 6.4-13.333 16.533-12.8 12.267-52.8 12.267-17.067 0-49.6 0.53333-1.6-29.867-1.6-43.2zm1.0667-126.93q0-96 0.5333-118.93 18.667-2.6667 31.467-2.6667 35.2 0 52.8 21.333 8 9.6 11.2 22.4 3.7333 12.8 3.7333 17.067 0 9.6-1.6 17.067-9.0667 43.733-57.6 43.733zm-109.33 208h171.73q76.8 0 113.07-26.133 31.467-22.933 31.467-65.6 0-61.333-62.933-85.867-22.4-8.5333-54.4-10.667v-4.2667q39.467-2.1333 64.533-19.733 29.333-21.333 29.333-58.133 0-62.4-74.133-83.733-26.133-7.4667-62.4-7.4667h-156.27v14.933h5.3334q15.467 0 19.733 16.533 2.1333 7.4667 2.1333 29.333v240q0 21.867-2.1333 29.333-4.2667 16.533-19.733 16.533h-5.3334z"/><path d="m3410.7 290.75v153.6q0 43.733-25.6 68.8-11.733 11.2-26.667 16.533-9.6 3.7333-19.2 3.7333-10.667 0-18.133-2.6667-27.2-9.0667-42.667-30.4-14.933-21.867-14.933-50.133 0-82.667 2.1334-181.33 0.5333-22.4 2.1333-29.333 4.8-16.533 19.733-16.533h5.3334v-14.933h-137.07v14.933h5.3333q15.467 0 19.733 16.533 2.1334 7.4667 2.1334 29.333v173.33q0 64.533 44.267 101.87 40 34.133 97.067 34.133 61.867 0 102.4-37.867 41.067-37.867 41.067-98.133v-146.13q0-42.133 8-59.2 6.4-13.867 18.133-13.867h5.3333v-14.933l-133.87-0.53334v14.933h12.8q22.933 0 29.867 34.133 2.6666 13.333 2.6666 34.133z"/><path d="m3786.2 213.42q-0.5334 0-5.3333 2.1333-4.8 2.1333-9.0667 1.0667-6.9333-4.2667-23.467-10.133-36.267-6.9333-60.8-6.9333-62.933 0-99.2 35.2-33.067 32-33.067 72 0 45.867 29.333 75.2 21.333 21.333 69.867 43.2 13.333 3.2 36.267 11.733 11.2 4.8 28.8 15.467 15.467 14.4 18.667 21.867 4.2667 9.6 0.5333 19.733-5.8666 16-19.2 28.267-14.933 13.333-45.867 13.333-8 0-34.133-6.9333-8.5333-2.1333-29.333-11.733-17.067-7.4667-29.333-21.333-6.4-5.8667-27.2-24.533l1.0667 41.067v50.667q1.0666 0 8.5333-2.1333 5.8666-1.6 10.133-0.53333 7.4667 4.2667 24 10.133 40.533 7.4667 73.067 7.4667 60.8 0 99.733-31.467 38.933-32 38.933-77.867 0-58.667-60.267-96.533-7.4667-4.8-26.133-10.133-21.867-6.4-29.867-10.133-14.4-5.3333-38.4-16.533-11.2-6.4-27.733-18.667-4.8-4.8-10.667-22.4-1.6-4.2667 0-12.8 1.0666-8 4.2666-12.267 9.6-12.8 11.2-14.4 2.1333-2.1333 10.667-6.4 17.6-9.0667 38.933-9.0667 19.2 0 36.267 5.3333 20.267 6.4 36.267 17.067 18.667 12.267 32.533 30.933z"/><path d="m4092.3 253.95q-17.067-0.53333-55.467-1.6-0.5333 21.333-1.0666 46.933-1.0667 35.733-1.6 144l-0.5334 65.6q0 21.867 2.1334 29.333 4.2666 16.533 19.733 16.533h5.3333v14.933h-134.4v-14.933h5.3333q15.467 0 19.733-16.533 2.1334-7.4667 2.1334-29.333l-0.5334-256.53q-10.667 0.53333-44.267 0.53333-22.933 0-32 1.6-13.333 2.1333-26.667 11.2-5.8667 3.7333-9.0667 6.9333-5.3333 5.3333-5.3333 11.2l-0.5334-22.933v-52.8h317.87l-0.5333 34.667v44.267q-16.533-28.8-36.267-31.467z"/><path d="m4395.8 416.09v-72l-10.133 8-10.133 3.7333q-0.5333 0-0.5333 0t-0.5334 0q0 0-0.5333 0-1.6 0-5.8667 1.6-4.2666 1.0667-44.267 1.0667h-27.2q0-13.867 0-50.667 0-8 1.0667-57.6h48q51.733 0 77.867 22.4 10.133 8 20.267 16.533 7.4667 7.4667 8.5333 23.467h14.933l-2.6667-104.53h-277.33v14.933h5.3334q15.467 0 19.733 16.533 2.1333 7.4667 2.1333 29.333v240q0 21.867-2.1333 29.333-4.2667 16.533-19.733 16.533h-5.3334v14.933h298.67l5.3334-109.33h-14.933q-1.0666 6.4-4.2666 9.0667-4.8 3.7333-6.9334 8-18.133 33.6-59.2 46.933-21.867 6.9333-50.667 6.9333-30.4 0-43.2-6.9333-17.6-9.6-17.6-37.333v-33.067q0-14.4 0.5333-44.267l75.733-2.1333z"/><path d="m4696.5 450.75q26.133 46.4 51.2 83.733 11.2 17.067 11.2 22.933 0 5.3333-3.7333 12.267h126.93v-14.933q-10.133 0-34.133-25.067-42.133-43.2-94.933-131.73 59.2-17.6 77.867-60.267 5.8667-13.867 5.8667-29.333 0-69.333-69.333-92.8-22.933-7.4667-53.867-7.4667h-180.27v14.933h5.3334q15.467 0 19.733 16.533 2.1333 7.4667 2.1333 29.333v240q0 21.867-2.1333 29.333-4.2667 16.533-19.733 16.533h-5.3334v14.933h134.4v-14.933h-5.3333q-15.467 0-19.733-16.533-2.1333-7.4667-2.1333-29.333v-46.4q0-26.667 0.5333-53.867 11.733 1.6 20.8 6.9333zm-55.467-63.467 1.0667-51.733q0.5333-24.533 1.0666-45.333 0.5334-4.8 1.0667-19.733t1.0667-22.933q14.933-2.6667 29.867-2.6667 37.867 0 57.067 22.933 9.0667 11.2 13.333 26.133 3.2 11.2 3.2 16.533 0 43.733-21.867 63.467-18.133 16-53.333 16-12.267 0-32.533-2.6667z"/><path d="m5148.8 213.42q-0.5333 0-5.3333 2.1333t-9.0667 1.0667q-6.9333-4.2667-23.467-10.133-36.267-6.9333-60.8-6.9333-62.933 0-99.2 35.2-33.067 32-33.067 72 0 45.867 29.333 75.2 21.333 21.333 69.867 43.2 13.333 3.2 36.267 11.733 11.2 4.8 28.8 15.467 15.467 14.4 18.667 21.867 4.2667 9.6 0.5334 19.733-5.8667 16-19.2 28.267-14.933 13.333-45.867 13.333-8 0-34.133-6.9333-8.5333-2.1333-29.333-11.733-17.067-7.4667-29.333-21.333-6.4-5.8667-27.2-24.533l1.0667 41.067v50.667q1.0666 0 8.5333-2.1333 5.8667-1.6 10.133-0.53333 7.4667 4.2667 24 10.133 40.533 7.4667 73.067 7.4667 60.8 0 99.733-31.467 38.933-32 38.933-77.867 0-58.667-60.267-96.533-7.4667-4.8-26.133-10.133-21.867-6.4-29.867-10.133-14.4-5.3333-38.4-16.533-11.2-6.4-27.733-18.667-4.8-4.8-10.667-22.4-1.6-4.2667 0-12.8 1.0666-8 4.2666-12.267 9.6-12.8 11.2-14.4 2.1334-2.1333 10.667-6.4 17.6-9.0667 38.933-9.0667 19.2 0 36.267 5.3333 20.267 6.4 36.267 17.067 18.667 12.267 32.533 30.933z"/></g></svg>
