<?xml version="1.0" encoding="UTF-8"?>
<!-- Generator: Adobe Illustrator 19.0.0, SVG Export Plug-In . SVG Version: 6.00 Build 0)  -->
<svg enable-background="new 0 0 172.151 172.151" version="1.1" viewBox="0 0 172.15 172.15" xml:space="preserve" xmlns="http://www.w3.org/2000/svg">

	
		
			<path d="m94.992 27.9c-1.292-0.552-2.796-0.292-3.832 0.67-1.031 0.963-1.398 2.443-0.937 3.777 8.126 23.446 1.654 49.526-16.488 66.441-18.141 16.918-44.614 21.557-67.43 11.814-1.297-0.55-2.8-0.291-3.832 0.672-1.031 0.963-1.398 2.443-0.937 3.777 3.195 9.216 8.213 17.533 14.916 24.72 12.722 13.643 29.998 21.515 48.642 22.166 0.836 0.03 1.666 0.044 2.499 0.044 17.728 0 34.54-6.611 47.573-18.764 13.643-12.724 21.517-29.998 22.168-48.643 0.651-18.644-5.998-36.426-18.72-50.069-6.704-7.187-14.65-12.774-23.622-16.605zm35.213 66.425c-0.584 16.74-7.653 32.251-19.905 43.675-12.25 11.423-28.237 17.373-44.957 16.811-16.741-0.585-32.251-7.654-43.674-19.904-4.208-4.513-7.678-9.519-10.363-14.948 23.46 6.862 49.127 0.987 67.294-15.954 18.165-16.939 25.826-42.128 20.608-66.018 5.229 3.059 9.982 6.869 14.188 11.382 11.425 12.25 17.394 28.217 16.809 44.956z"/>
			<path d="m47.4 31.377c0.696 0.696 1.609 1.045 2.521 1.045s1.825-0.348 2.521-1.045l5.107-5.107 5.107 5.107c0.696 0.696 1.609 1.045 2.521 1.045s1.825-0.348 2.521-1.045c1.393-1.393 1.393-3.649 0-5.042l-5.106-5.106 4.972-4.972c1.393-1.393 1.393-3.649 0-5.042s-3.649-1.393-5.042 0l-4.972 4.972-4.973-4.973c-1.393-1.393-3.649-1.393-5.042 0s-1.393 3.649 0 5.042l4.973 4.973-5.108 5.106c-1.393 1.393-1.393 3.649 0 5.042z"/>
			<path d="m171.11 65.559-5.107-5.107 4.973-4.973c1.393-1.393 1.393-3.649 0-5.042s-3.649-1.393-5.042 0l-4.973 4.973-4.973-4.973c-1.393-1.393-3.649-1.393-5.042 0s-1.393 3.649 0 5.042l4.973 4.973-5.107 5.107c-1.393 1.393-1.393 3.649 0 5.042 0.696 0.696 1.609 1.045 2.521 1.045s1.825-0.348 2.521-1.045l5.107-5.107 5.107 5.107c0.696 0.696 1.609 1.045 2.521 1.045s1.825-0.348 2.521-1.045c1.392-1.393 1.392-3.649 0-5.042z"/>
			<path d="m6.087 95.562 5.107-5.107 5.107 5.107c0.696 0.696 1.609 1.045 2.521 1.045s1.825-0.348 2.521-1.045c1.393-1.393 1.393-3.649 0-5.042l-5.107-5.107 4.973-4.973c1.393-1.393 1.393-3.649 0-5.042s-3.649-1.393-5.042 0l-4.973 4.973-4.972-4.973c-1.393-1.393-3.649-1.393-5.042 0s-1.393 3.649 0 5.042l4.973 4.973-5.108 5.106c-1.393 1.393-1.393 3.649 0 5.042 0.696 0.696 1.609 1.045 2.521 1.045s1.824-0.348 2.521-1.044z"/>
		
	
















</svg>
